<svg width="67" height="28" viewBox="0 0 67 28" fill="none" xmlns="http://www.w3.org/2000/svg">
<g clip-path="url(#clip0_10_2)" filter="url(#filter0_d_10_2)">
<path d="M4 19.5676V0.216198H10.7026C11.538 0.210424 12.3675 0.356677 13.1505 0.647812C13.8924 0.921593 14.5756 1.33379 15.1637 1.86249C15.7612 2.4057 16.2363 3.06984 16.5574 3.81079C16.8785 4.55174 17.0383 5.35255 17.0262 6.16C17.0346 6.96286 16.873 7.75841 16.552 8.49435C16.231 9.23029 15.7578 9.88996 15.1637 10.43C14.5757 10.9589 13.8925 11.3711 13.1505 11.6447C12.368 11.9359 11.5391 12.0824 10.7042 12.0771H7.05369V19.5635L4 19.5676ZM10.7835 9.16186C11.2467 9.17085 11.7068 9.08429 12.1351 8.90759C12.5125 8.74953 12.853 8.51487 13.1352 8.21847C13.4016 7.93659 13.6123 7.60689 13.7563 7.24673C13.897 6.90357 13.9704 6.53655 13.9725 6.16567C13.97 5.39418 13.6701 4.65337 13.1352 4.09748C12.8293 3.78664 12.4633 3.54133 12.0596 3.37649C11.6559 3.21166 11.2228 3.13075 10.7868 3.1387H7.05369V9.1651L10.7835 9.16186Z" fill="#191919"/>
<path d="M19.4045 6.3244V19.5676H22.4047V6.3244H19.4045Z" fill="#191919"/>
<path d="M22.9109 2.02445C22.9153 2.28999 22.8662 2.5537 22.7665 2.79983C22.6667 3.04596 22.5183 3.26945 22.3303 3.45695C22.1479 3.64913 21.9274 3.80123 21.683 3.90356C21.4386 4.00589 21.1756 4.05622 20.9107 4.05133V4.05133V-6.27427e-06C21.1756 -0.00469046 21.4386 0.0457264 21.6829 0.148046C21.9273 0.250366 22.1477 0.402356 22.3303 0.594374C22.5179 0.781671 22.666 1.00478 22.7658 1.25045C22.8655 1.49612 22.9149 1.75933 22.9109 2.02445V2.02445Z" fill="#35AF39"/>
<path d="M20.9082 -3.17023e-06V4.05377C20.6399 4.05996 20.3732 4.01033 20.1251 3.90801C19.877 3.80569 19.6528 3.65292 19.4668 3.45939C19.2779 3.27192 19.1288 3.04814 19.0286 2.80154C18.9284 2.55493 18.8791 2.2906 18.8838 2.02445C18.88 1.75915 18.9296 1.49579 19.0298 1.25009C19.13 1.00439 19.2786 0.781388 19.4668 0.594377C19.653 0.401162 19.8772 0.248601 20.1253 0.146305C20.3734 0.0440089 20.64 -0.00580651 20.9082 -3.17023e-06V-3.17023e-06Z" fill="#00BAFC"/>
<path d="M28.9996 12.8375L24.4316 6.3244H27.9185L30.7827 10.5134H30.8637L33.536 6.3244H37.1574L32.5359 12.8375L37.2383 19.5676H33.6753L30.8103 15.2433H30.7293L27.8886 19.5676H24.3506L28.9996 12.8375Z" fill="#191919"/>
<path d="M50.837 16.4054C50.267 17.4441 49.4495 18.3261 48.4571 18.9732C47.4313 19.6588 46.1705 20.0016 44.6746 20.0016C43.7342 20.0115 42.8015 19.8322 41.9318 19.4745C41.1138 19.1368 40.3733 18.6356 39.7559 18.0015C39.1359 17.3602 38.649 16.6025 38.3234 15.7721C37.9729 14.8722 37.7986 13.9133 37.81 12.9476C37.8047 12.0202 37.9694 11.0997 38.2959 10.2316C38.6033 9.40335 39.0664 8.64165 39.6604 7.98769C40.2804 7.31507 41.0354 6.78088 41.876 6.42003C42.7166 6.05917 43.6238 5.87979 44.5385 5.89359C45.5642 5.89359 46.4788 6.06473 47.2821 6.407C48.0578 6.73143 48.754 7.22015 49.3227 7.8395C49.8983 8.48222 50.3353 9.23672 50.6062 10.0559C50.9111 10.9693 51.0619 11.9272 51.0524 12.8901V13.133C51.0351 13.2129 51.0259 13.2943 51.0249 13.376C51.0072 13.4467 50.9983 13.5193 50.9982 13.5922H40.8103C40.8481 14.1675 41.0044 14.7288 41.2694 15.2409C41.5017 15.6851 41.8183 16.0798 42.2015 16.4029C42.5639 16.7056 42.9816 16.935 43.4315 17.0783C43.8589 17.2192 44.3056 17.2921 44.7555 17.2945C45.6193 17.2945 46.3311 17.0875 46.8909 16.6734C47.449 16.2587 47.9173 15.7354 48.2676 15.1348L50.837 16.4054ZM48.0522 11.2973C48.0045 10.986 47.9183 10.6819 47.7955 10.3919C47.6524 10.0474 47.4411 9.73528 47.1744 9.47445C46.8604 9.17221 46.4941 8.92964 46.0933 8.7586C45.6522 8.56048 45.1164 8.46141 44.4859 8.46141C43.6221 8.46141 42.8787 8.71811 42.2557 9.23152C41.6328 9.74492 41.2138 10.4335 40.999 11.2973H48.0522Z" fill="#191919"/>
<path d="M53.323 6.32439H56.1572V8.32455H56.3192C56.4896 7.97311 56.7142 7.65066 56.9848 7.36901C57.263 7.07159 57.5817 6.81481 57.9315 6.60619C58.2826 6.39788 58.6541 6.22586 59.0401 6.09279C59.4001 5.96384 59.7792 5.89596 60.1616 5.89197C60.5346 5.88498 60.9069 5.92608 61.2694 6.01424C61.5619 6.09067 61.8435 6.20386 62.1075 6.35111L61.2427 9.08089C61.0308 8.98692 60.8084 8.91894 60.5803 8.87844C60.2903 8.82969 59.9965 8.80692 59.7025 8.81042C59.2391 8.80503 58.7808 8.90761 58.3639 9.11004C57.9584 9.30937 57.5958 9.58611 57.2966 9.92468C56.9822 10.2826 56.7393 10.6974 56.5807 11.1466C56.408 11.6257 56.3211 12.1315 56.324 12.6407V19.5676H53.3279L53.323 6.32439Z" fill="#191919"/>
</g>
<defs>
<filter id="filter0_d_10_2" x="0" y="0" width="66.1068" height="28" filterUnits="userSpaceOnUse" color-interpolation-filters="sRGB">
<feFlood flood-opacity="0" result="BackgroundImageFix"/>
<feColorMatrix in="SourceAlpha" type="matrix" values="0 0 0 0 0 0 0 0 0 0 0 0 0 0 0 0 0 0 127 0" result="hardAlpha"/>
<feOffset dy="4"/>
<feGaussianBlur stdDeviation="2"/>
<feComposite in2="hardAlpha" operator="out"/>
<feColorMatrix type="matrix" values="0 0 0 0 0 0 0 0 0 0 0 0 0 0 0 0 0 0 0.25 0"/>
<feBlend mode="normal" in2="BackgroundImageFix" result="effect1_dropShadow_10_2"/>
<feBlend mode="normal" in="SourceGraphic" in2="effect1_dropShadow_10_2" result="shape"/>
</filter>
<clipPath id="clip0_10_2">
<rect width="58.1067" height="20" fill="white" transform="translate(4)"/>
</clipPath>
</defs>
</svg>
